<svg width="32" height="32" viewBox="0 0 32 32" fill="none" xmlns="http://www.w3.org/2000/svg">
<path opacity="0.2" fill-rule="evenodd" clip-rule="evenodd" d="M8.35042 4.4H6.72002C6.40176 4.4 6.09653 4.27357 5.87149 4.04853C5.64645 3.82348 5.52002 3.51826 5.52002 3.2C5.52002 2.88174 5.64645 2.57652 5.87149 2.35147C6.09653 2.12643 6.40176 2 6.72002 2H9.28482C9.55182 2.00003 9.81119 2.0891 10.0219 2.25313C10.2326 2.41715 10.3825 2.64676 10.448 2.9056L12.8512 12.4048C13.3276 12.1391 13.8641 11.9998 14.4096 12H27.192C27.6762 12.0011 28.1538 12.1114 28.5894 12.3227C29.025 12.534 29.4074 12.8408 29.708 13.2203C30.0086 13.5998 30.2198 14.0422 30.3257 14.5146C30.4317 14.987 30.4297 15.4773 30.32 15.9488L29.0672 21.4864C28.9081 22.1986 28.5114 22.8354 27.9424 23.2923C27.3733 23.7491 26.6658 23.9987 25.936 24H15.664C14.9347 23.9987 14.2275 23.7493 13.6588 23.2927C13.09 22.8362 12.6935 22.1998 12.5344 21.488L11.28 15.9472C11.2629 15.8704 11.2484 15.793 11.2368 15.7152C11.2028 15.6434 11.176 15.5683 11.1568 15.4912L8.35042 4.4ZM14.8 29.6C15.5426 29.6 16.2548 29.305 16.7799 28.7799C17.305 28.2548 17.6 27.5426 17.6 26.8C17.6 26.0574 17.305 25.3452 16.7799 24.8201C16.2548 24.295 15.5426 24 14.8 24C14.0574 24 13.3452 24.295 12.8201 24.8201C12.295 25.3452 12 26.0574 12 26.8C12 27.5426 12.295 28.2548 12.8201 28.7799C13.3452 29.305 14.0574 29.6 14.8 29.6ZM26 29.6C26.7426 29.6 27.4548 29.305 27.9799 28.7799C28.505 28.2548 28.8 27.5426 28.8 26.8C28.8 26.0574 28.505 25.3452 27.9799 24.8201C27.4548 24.295 26.7426 24 26 24C25.2574 24 24.5452 24.295 24.0201 24.8201C23.495 25.3452 23.2 26.0574 23.2 26.8C23.2 27.5426 23.495 28.2548 24.0201 28.7799C24.5452 29.305 25.2574 29.6 26 29.6Z" fill="#C4B0FF"/>
<path d="M5.93921 3.99999H4.00001C3.78784 3.99999 3.58436 3.91571 3.43433 3.76568C3.2843 3.61565 3.20001 3.41217 3.20001 3.19999C3.20001 2.98782 3.2843 2.78434 3.43433 2.63431C3.58436 2.48428 3.78784 2.39999 4.00001 2.39999H6.56481C6.74326 2.40004 6.91657 2.45975 7.05718 2.56963C7.19779 2.67951 7.29763 2.83325 7.34081 3.00639L10.376 15.1664C10.4219 15.3703 10.3862 15.584 10.2765 15.7619C10.1668 15.9397 9.99193 16.0676 9.78918 16.1182C9.58643 16.1688 9.37193 16.1381 9.19157 16.0325C9.0112 15.927 8.87928 15.7551 8.82401 15.5536L5.93921 3.99999Z" fill="#C4B0FF"/>
<path fill-rule="evenodd" clip-rule="evenodd" d="M24.792 12H12.008C11.768 12 11.528 12.0272 11.2928 12.08C10.4606 12.275 9.73947 12.7917 9.28728 13.517C8.83509 14.2424 8.68866 15.1173 8.88003 15.9504L10.1328 21.488C10.292 22.2 10.6887 22.8367 11.2578 23.2932C11.8269 23.7498 12.5344 23.999 13.264 24H23.5392C24.2684 23.9981 24.9753 23.7485 25.5439 23.292C26.1126 22.8356 26.5092 22.1995 26.6688 21.488L27.9216 15.9488C28.0314 15.4771 28.0333 14.9868 27.9273 14.5142C27.8212 14.0417 27.6099 13.5992 27.3091 13.2197C27.0083 12.8401 26.6258 12.5334 26.19 12.3222C25.7541 12.111 25.2763 12.0009 24.792 12ZM11.6528 13.64C11.7699 13.6132 11.8896 13.5998 12.0096 13.6H24.792C25.036 13.6013 25.2764 13.6577 25.4955 13.765C25.7146 13.8722 25.9067 14.0275 26.0574 14.2193C26.2082 14.4111 26.3136 14.6344 26.366 14.8726C26.4184 15.1109 26.4164 15.3579 26.36 15.5952L25.1056 21.1344C25.0265 21.4919 24.8282 21.8119 24.5433 22.0419C24.2584 22.2718 23.9038 22.3981 23.5376 22.4H13.264C12.5152 22.4 11.864 21.8752 11.696 21.1344L10.4432 15.5952C10.3461 15.1754 10.419 14.7343 10.6459 14.368C10.8728 14.0017 11.2337 13.74 11.6528 13.64Z" fill="#C4B0FF"/>
<path d="M27.2 26.8C27.2 27.5426 26.905 28.2548 26.3799 28.7799C25.8548 29.305 25.1426 29.6 24.4 29.6C23.6574 29.6 22.9452 29.305 22.4201 28.7799C21.895 28.2548 21.6 27.5426 21.6 26.8C21.6 26.0574 21.895 25.3452 22.4201 24.8201C22.9452 24.295 23.6574 24 24.4 24C25.1426 24 25.8548 24.295 26.3799 24.8201C26.905 25.3452 27.2 26.0574 27.2 26.8ZM16 26.8C16 27.1677 15.9276 27.5318 15.7869 27.8715C15.6462 28.2112 15.4399 28.5199 15.1799 28.7799C14.9199 29.0399 14.6112 29.2461 14.2715 29.3869C13.9318 29.5276 13.5677 29.6 13.2 29.6C12.8323 29.6 12.4682 29.5276 12.1285 29.3869C11.7888 29.2461 11.4801 29.0399 11.2201 28.7799C10.9601 28.5199 10.7539 28.2112 10.6132 27.8715C10.4724 27.5318 10.4 27.1677 10.4 26.8C10.4 26.0574 10.695 25.3452 11.2201 24.8201C11.7452 24.295 12.4574 24 13.2 24C13.9426 24 14.6548 24.295 15.1799 24.8201C15.705 25.3452 16 26.0574 16 26.8Z" fill="#C4B0FF"/>
</svg>
