<svg width="32" height="32" viewBox="0 0 32 32" fill="none" xmlns="http://www.w3.org/2000/svg">
<path opacity="0.3" d="M22.6666 23.96V14.5333C21.1608 14.2259 19.8075 13.4077 18.8356 12.2172C17.8637 11.0266 17.333 9.53686 17.3333 7.99999C17.3333 7.54666 17.3733 7.09332 17.4666 6.66666H9.33331V23.96L16 21.1067L22.6666 23.96Z" fill="#C4B0FF"/>
<path d="M28 9.33333H25.3334V12H22.6667V9.33333H20V6.66667H22.6667V4H25.3334V6.66667H28V9.33333ZM22.6667 23.96L16 21.1067L9.33335 23.96V6.66667H17.4667C17.6667 5.68 18.08 4.77333 18.6667 4H9.33335C7.86669 4 6.66669 5.2 6.66669 6.66667V28L16 24L25.3334 28V14.5333C24.9067 14.6267 24.4534 14.6667 24 14.6667C23.5467 14.6667 23.0934 14.6267 22.6667 14.5333V23.96Z" fill="#C4B0FF"/>
</svg>
