<svg width="32" height="32" viewBox="0 0 32 32" fill="none" xmlns="http://www.w3.org/2000/svg">
<path opacity="0.2" d="M28.2938 15.125L18.725 18.0625C18.5689 18.1104 18.4269 18.1959 18.3114 18.3114C18.1959 18.4268 18.1104 18.5689 18.0625 18.725L15.125 28.2937C15.0632 28.4955 14.9391 28.6725 14.7706 28.7995C14.602 28.9265 14.3976 28.9969 14.1866 29.0006C13.9756 29.0044 13.7689 28.9413 13.5959 28.8204C13.423 28.6995 13.2927 28.5269 13.2238 28.3275L5.06376 6.32749C5.00373 6.15101 4.99423 5.96126 5.03633 5.77966C5.07843 5.59807 5.17045 5.43186 5.302 5.29978C5.43355 5.16771 5.5994 5.07504 5.78083 5.03222C5.96226 4.98941 6.15204 4.99816 6.32876 5.05749L28.3288 13.2175C28.5305 13.2851 28.7055 13.4152 28.8282 13.5891C28.9509 13.7629 29.015 13.9713 29.011 14.1841C29.0071 14.3968 28.9355 14.6028 28.8065 14.772C28.6775 14.9412 28.4979 15.0649 28.2938 15.125Z" fill="#C4B0FF"/>
<path d="M28.6662 12.2762L6.67623 4.125L6.65623 4.11875C6.30228 3.99688 5.92122 3.97679 5.55641 4.06078C5.1916 4.14477 4.85769 4.32946 4.59265 4.59384C4.32762 4.85823 4.14211 5.19168 4.05722 5.55628C3.97234 5.92089 3.99148 6.30199 4.11248 6.65625C4.114 6.66308 4.11609 6.66977 4.11873 6.67625L12.2762 28.6662C12.4102 29.0583 12.6643 29.3982 13.0025 29.6377C13.3407 29.8771 13.7457 30.0039 14.16 30H14.1975C14.62 29.9968 15.0303 29.8579 15.3679 29.6038C15.7055 29.3497 15.9525 28.9939 16.0725 28.5887L19.0175 19.0187L28.5875 16.0737C28.9896 15.95 29.3425 15.7026 29.5959 15.3667C29.8493 15.0309 29.9903 14.6237 29.9989 14.203C30.0074 13.7824 29.8832 13.3697 29.6437 13.0238C29.4042 12.6779 29.0617 12.4163 28.665 12.2762H28.6662ZM28 14.1625L18.43 17.1075C18.1185 17.2035 17.8351 17.3741 17.6046 17.6046C17.3741 17.8351 17.2035 18.1185 17.1075 18.43L14.1625 28L14.155 27.9787L5.99998 6L27.9775 14.1525L27.9975 14.16L28 14.1625Z" fill="#C4B0FF"/>
</svg>
