<svg width="190" height="30" viewBox="0 0 190 30" fill="none" xmlns="http://www.w3.org/2000/svg">
<path d="M12.041 10.959C12.0996 10.9883 12.168 11.0225 12.2461 11.0615C12.3242 11.0908 12.3779 11.1152 12.4072 11.1348C12.4463 11.1445 12.4902 11.1592 12.5391 11.1787C12.5879 11.1982 12.6221 11.2129 12.6416 11.2227C12.6611 11.2227 12.6855 11.2275 12.7148 11.2373C12.7539 11.2471 12.7881 11.2568 12.8174 11.2666C12.8564 11.2666 12.8906 11.2666 12.9199 11.2666C12.959 11.2666 13.0029 11.2666 13.0518 11.2666C14.2432 11.2666 14.8389 9.79688 14.8389 6.85742C14.8389 4.55273 14.3457 3.40039 13.3594 3.40039C13.0469 3.40039 12.7881 3.47852 12.583 3.63477C12.3877 3.78125 12.2412 4.01562 12.1436 4.33789C12.0459 4.66016 11.9775 4.99707 11.9385 5.34863C11.9092 5.69043 11.8945 6.125 11.8945 6.65234C11.8945 6.69141 11.8896 6.8623 11.8799 7.16504C11.8799 7.45801 11.8799 7.79492 11.8799 8.17578C11.8799 8.92773 11.8848 9.60645 11.8945 10.2119C11.8945 10.4951 11.9434 10.7441 12.041 10.959ZM1.8457 0.983398C1.94336 0.983398 2.36816 1.00293 3.12012 1.04199C3.88184 1.08105 4.63867 1.11523 5.39062 1.14453C6.15234 1.17383 6.78711 1.18848 7.29492 1.18848C7.95898 1.18848 8.96484 1.1543 10.3125 1.08594C11.6699 1.01758 12.7002 0.983398 13.4033 0.983398C13.9209 0.983398 14.3701 0.988281 14.751 0.998047C15.1416 1.00781 15.6348 1.03223 16.2305 1.07129C16.8359 1.11035 17.3633 1.16895 17.8125 1.24707C18.2715 1.31543 18.7842 1.42285 19.3506 1.56934C19.917 1.71582 20.4053 1.88672 20.8154 2.08203C21.2354 2.27734 21.6553 2.53125 22.0752 2.84375C22.4951 3.14648 22.8369 3.49316 23.1006 3.88379C23.374 4.26465 23.5938 4.71875 23.7598 5.24609C23.9258 5.77344 24.0088 6.35449 24.0088 6.98926C24.0088 8.01465 23.833 8.93262 23.4814 9.74316C23.1299 10.5537 22.6562 11.2227 22.0605 11.75C21.4746 12.2773 20.7666 12.7168 19.9365 13.0684C19.1064 13.4102 18.2373 13.6543 17.3291 13.8008C16.4307 13.9473 15.4639 14.0205 14.4287 14.0205C13.8135 14.0205 12.9688 13.9766 11.8945 13.8887C11.8945 16.9941 12.3096 18.5859 13.1396 18.6641C13.1592 18.6641 13.2178 18.6738 13.3154 18.6934C13.4131 18.7129 13.4717 18.7275 13.4912 18.7373C13.5205 18.7373 13.5791 18.7471 13.667 18.7666C13.7549 18.7861 13.8135 18.8057 13.8428 18.8252C13.8721 18.835 13.9209 18.8545 13.9893 18.8838C14.0576 18.9131 14.1064 18.9424 14.1357 18.9717C14.165 19.001 14.1992 19.04 14.2383 19.0889C14.2871 19.1377 14.3213 19.1914 14.3408 19.25C14.3604 19.2988 14.375 19.3623 14.3848 19.4404C14.4043 19.5088 14.4141 19.5869 14.4141 19.6748C14.4141 20.4365 14.3359 21.1689 14.1797 21.8721C14.0332 22.5752 13.7793 23.0146 13.418 23.1904C12.0996 23.0635 10.0537 23 7.28027 23C4.31152 23 2.48535 23.0635 1.80176 23.1904C1.52832 23.0049 1.31836 22.5117 1.17188 21.7109C1.02539 20.9004 0.952148 20.124 0.952148 19.3818C0.952148 19.1963 0.986328 19.04 1.05469 18.9131C1.12305 18.7861 1.22559 18.6934 1.3623 18.6348C1.50879 18.5664 1.64062 18.5225 1.75781 18.5029C1.875 18.4736 2.04102 18.4492 2.25586 18.4297C2.54883 18.4004 2.78809 18.2881 2.97363 18.0928C3.16895 17.8975 3.31055 17.6338 3.39844 17.3018C3.48633 16.96 3.54492 16.6279 3.57422 16.3057C3.60352 15.9834 3.61816 15.6025 3.61816 15.1631V8.73242C3.61816 8.35156 3.6084 8.03418 3.58887 7.78027C3.5791 7.52637 3.5498 7.25781 3.50098 6.97461C3.45215 6.69141 3.37891 6.4668 3.28125 6.30078C3.19336 6.125 3.06641 5.97852 2.90039 5.86133C2.73438 5.73437 2.53418 5.65625 2.2998 5.62695C2.09473 5.60742 1.92871 5.58301 1.80176 5.55371C1.68457 5.52441 1.55273 5.48047 1.40625 5.42188C1.26953 5.35352 1.16699 5.25586 1.09863 5.12891C1.03027 5.00195 0.996094 4.8457 0.996094 4.66016C0.996094 3.94727 1.06934 3.2002 1.21582 2.41895C1.3623 1.6377 1.57227 1.15918 1.8457 0.983398ZM34.8926 23.3955C32.0703 23.3955 29.7998 22.6826 28.0811 21.2568C26.3721 19.8311 25.5176 17.8242 25.5176 15.2363C25.5176 12.6582 26.3037 10.6367 27.876 9.17188C29.458 7.70703 31.7383 6.97461 34.7168 6.97461C36.1621 6.97461 37.4609 7.13574 38.6133 7.45801C39.7656 7.78027 40.7617 8.26367 41.6016 8.9082C42.4512 9.55273 43.1006 10.3926 43.5498 11.4277C44.0088 12.4629 44.2383 13.6641 44.2383 15.0312C44.2383 17.707 43.418 19.7725 41.7773 21.2275C40.1367 22.6729 37.8418 23.3955 34.8926 23.3955ZM33.3398 15.251C33.3398 17.0967 33.4473 18.4492 33.6621 19.3086C33.8867 20.168 34.3115 20.5977 34.9365 20.5977C35.1611 20.5977 35.3564 20.5342 35.5225 20.4072C35.6982 20.2803 35.835 20.0801 35.9326 19.8066C36.04 19.5332 36.1279 19.25 36.1963 18.957C36.2646 18.6543 36.3135 18.2637 36.3428 17.7852C36.3721 17.3066 36.3916 16.8721 36.4014 16.4814C36.4111 16.0908 36.416 15.5977 36.416 15.002C36.416 14.5527 36.4111 14.1865 36.4014 13.9033C36.4014 13.6104 36.3867 13.2197 36.3574 12.7314C36.3281 12.2334 36.2793 11.8281 36.2109 11.5156C36.1523 11.1934 36.0693 10.8662 35.9619 10.5342C35.8545 10.2021 35.708 9.95312 35.5225 9.78711C35.3467 9.62109 35.1367 9.53809 34.8926 9.53809C34.248 9.53809 33.8281 9.97266 33.6328 10.8418C33.4375 11.7109 33.3398 13.1807 33.3398 15.251ZM61.0693 17.2871L61.5234 18.0195C61.5234 19.7285 60.9766 21.0518 59.8828 21.9893C58.7891 22.9268 57.0898 23.3955 54.7852 23.3955C53.3105 23.3955 51.9824 23.1709 50.8008 22.7217C49.6191 22.2627 48.6621 21.6572 47.9297 20.9053C47.1973 20.1436 46.6357 19.2939 46.2451 18.3564C45.8643 17.4092 45.6738 16.4229 45.6738 15.3975C45.6738 14.2842 45.8643 13.2295 46.2451 12.2334C46.626 11.2373 47.1826 10.3438 47.915 9.55273C48.6475 8.76172 49.5996 8.13672 50.7715 7.67773C51.9531 7.20898 53.2861 6.97461 54.7705 6.97461C56.7822 6.97461 58.3008 7.32617 59.3262 8.0293C60.3516 8.72266 60.8643 9.53809 60.8643 10.4756C60.8643 11.1982 60.5664 11.8232 59.9707 12.3506C59.375 12.8682 58.5986 13.127 57.6416 13.127L56.001 9.69922C55.8936 9.5918 55.6006 9.53809 55.1221 9.53809C54.6436 9.53809 54.2432 9.74805 53.9209 10.168C53.5986 10.5781 53.3691 11.0957 53.2324 11.7207C53.1055 12.3359 53.042 13.0244 53.042 13.7861C53.042 15.2705 53.3838 16.4277 54.0674 17.2578C54.751 18.0879 55.6055 18.5029 56.6309 18.5029C58.2031 18.5029 59.6826 18.0977 61.0693 17.2871ZM72.2754 23.3955C69.4531 23.3955 67.1826 22.6826 65.4639 21.2568C63.7549 19.8311 62.9004 17.8242 62.9004 15.2363C62.9004 12.6582 63.6865 10.6367 65.2588 9.17188C66.8408 7.70703 69.1211 6.97461 72.0996 6.97461C73.5449 6.97461 74.8438 7.13574 75.9961 7.45801C77.1484 7.78027 78.1445 8.26367 78.9844 8.9082C79.834 9.55273 80.4834 10.3926 80.9326 11.4277C81.3916 12.4629 81.6211 13.6641 81.6211 15.0312C81.6211 17.707 80.8008 19.7725 79.1602 21.2275C77.5195 22.6729 75.2246 23.3955 72.2754 23.3955ZM70.7227 15.251C70.7227 17.0967 70.8301 18.4492 71.0449 19.3086C71.2695 20.168 71.6943 20.5977 72.3193 20.5977C72.5439 20.5977 72.7393 20.5342 72.9053 20.4072C73.0811 20.2803 73.2178 20.0801 73.3154 19.8066C73.4229 19.5332 73.5107 19.25 73.5791 18.957C73.6475 18.6543 73.6963 18.2637 73.7256 17.7852C73.7549 17.3066 73.7744 16.8721 73.7842 16.4814C73.7939 16.0908 73.7988 15.5977 73.7988 15.002C73.7988 14.5527 73.7939 14.1865 73.7842 13.9033C73.7842 13.6104 73.7695 13.2197 73.7402 12.7314C73.7109 12.2334 73.6621 11.8281 73.5938 11.5156C73.5352 11.1934 73.4521 10.8662 73.3447 10.5342C73.2373 10.2021 73.0908 9.95312 72.9053 9.78711C72.7295 9.62109 72.5195 9.53809 72.2754 9.53809C71.6309 9.53809 71.2109 9.97266 71.0156 10.8418C70.8203 11.7109 70.7227 13.1807 70.7227 15.251ZM92.5781 21.667C92.5781 22.0771 92.5879 22.4287 92.6074 22.7217C92.627 23.0049 92.666 23.3223 92.7246 23.6738C92.793 24.0254 92.9004 24.2988 93.0469 24.4941C93.2031 24.6992 93.3984 24.8115 93.6328 24.8311C93.8574 24.8701 94.0234 24.9043 94.1309 24.9336C94.2383 24.9629 94.3652 25.0117 94.5117 25.0801C94.6582 25.1484 94.7607 25.2461 94.8193 25.373C94.8779 25.5 94.9072 25.6562 94.9072 25.8418C94.9072 26.5742 94.8047 27.3311 94.5996 28.1123C94.4043 28.8936 94.126 29.377 93.7646 29.5625C92.3486 29.2988 90.791 29.167 89.0918 29.167C87.334 29.167 85.7275 29.2988 84.2725 29.5625C83.9111 29.377 83.6279 28.8936 83.4229 28.1123C83.2275 27.3311 83.1299 26.5742 83.1299 25.8418C83.1299 25.6562 83.1592 25.5 83.2178 25.373C83.2764 25.2461 83.3789 25.1484 83.5254 25.0801C83.6719 25.0117 83.7988 24.9629 83.9062 24.9336C84.0137 24.9043 84.1797 24.8701 84.4043 24.8311C84.6387 24.8115 84.834 24.6846 84.9902 24.4502C85.1465 24.2158 85.2588 23.8984 85.3271 23.498C85.3955 23.0977 85.4395 22.7266 85.459 22.3848C85.4785 22.0332 85.4883 21.623 85.4883 21.1543V14.8994C85.4883 14.2256 85.4443 13.6592 85.3564 13.2002C85.2686 12.7314 85.1562 12.3848 85.0195 12.1602C84.8828 11.9355 84.7314 11.7598 84.5654 11.6328C84.3994 11.5059 84.2285 11.4229 84.0527 11.3838C83.8867 11.3447 83.7354 11.3057 83.5986 11.2666C83.4619 11.2275 83.3496 11.1543 83.2617 11.0469C83.1738 10.9297 83.1299 10.7588 83.1299 10.5342C83.1299 10.2021 83.1543 9.81641 83.2031 9.37695C83.2617 8.92773 83.3789 8.44922 83.5547 7.94141C83.7305 7.43359 83.9502 7.10645 84.2139 6.95996C85.0244 7.2334 86.4014 7.37012 88.3447 7.37012C88.8916 7.37012 89.5117 7.33594 90.2051 7.26758C90.9082 7.19922 91.4209 7.16504 91.7432 7.16504C91.9678 7.16504 92.0996 7.27734 92.1387 7.50195C92.1777 7.7168 92.1973 8.32715 92.1973 9.33301C92.5488 8.47363 93.1396 7.86816 93.9697 7.5166C94.8096 7.15527 95.752 6.97461 96.7969 6.97461C97.7246 6.97461 98.5596 7.11133 99.3018 7.38477C100.044 7.64844 100.664 8.00977 101.162 8.46875C101.66 8.92773 102.07 9.48438 102.393 10.1387C102.725 10.7832 102.964 11.4717 103.11 12.2041C103.257 12.9365 103.33 13.7275 103.33 14.5771C103.33 15.8662 103.135 17.0381 102.744 18.0928C102.354 19.1377 101.816 20.002 101.133 20.6855C100.449 21.3691 99.6484 21.8965 98.7305 22.2676C97.8223 22.6289 96.8457 22.8096 95.8008 22.8096C94.4141 22.8096 93.3398 22.4287 92.5781 21.667ZM92.4609 15.4707C92.4609 16.1836 92.4805 16.8037 92.5195 17.3311C92.5684 17.8584 92.6514 18.3467 92.7686 18.7959C92.8857 19.2451 93.0518 19.5869 93.2666 19.8213C93.4814 20.0557 93.75 20.1729 94.0723 20.1729C95.0586 20.1729 95.5518 18.4883 95.5518 15.1191C95.5518 13.5859 95.4199 12.3506 95.1562 11.4131C94.9023 10.4756 94.5264 10.0068 94.0283 10.0068C93.8428 10.0068 93.6719 10.041 93.5156 10.1094C93.3691 10.1777 93.2422 10.29 93.1348 10.4463C93.0273 10.6025 92.9346 10.7686 92.8564 10.9443C92.7783 11.1104 92.7148 11.3398 92.666 11.6328C92.6172 11.916 92.5781 12.1797 92.5488 12.4238C92.5195 12.6582 92.5 12.9707 92.4902 13.3613C92.4805 13.752 92.4707 14.0889 92.4609 14.3721C92.4609 14.6455 92.4609 15.0117 92.4609 15.4707ZM114.316 7.79492L114.302 8.80566C114.937 8.15137 115.718 7.68262 116.646 7.39941C117.573 7.11621 118.726 6.97461 120.103 6.97461C120.854 6.97461 121.553 7.08203 122.197 7.29688C122.842 7.51172 123.418 7.8291 123.926 8.24902C124.434 8.66895 124.829 9.22559 125.112 9.91895C125.405 10.6123 125.552 11.4033 125.552 12.292V14.7676C125.552 15.168 125.557 15.5146 125.566 15.8076C125.576 16.1006 125.605 16.4375 125.654 16.8184C125.703 17.1895 125.767 17.4971 125.845 17.7412C125.923 17.9854 126.04 18.2002 126.196 18.3857C126.362 18.5615 126.553 18.6641 126.768 18.6934C126.943 18.7227 127.075 18.752 127.163 18.7812C127.261 18.8008 127.373 18.8447 127.5 18.9131C127.637 18.9814 127.734 19.0791 127.793 19.2061C127.852 19.333 127.881 19.4893 127.881 19.6748C127.881 20.4072 127.778 21.1641 127.573 21.9453C127.378 22.7266 127.1 23.21 126.738 23.3955C125.547 23.1318 124.331 23 123.091 23C122.856 23 122.432 23.0342 121.816 23.1025C121.211 23.1709 120.757 23.2051 120.454 23.2051C119.819 23.2051 119.316 23.0977 118.945 22.8828C118.584 22.6582 118.403 22.2578 118.403 21.6816C118.403 21.2617 118.408 20.6025 118.418 19.7041C118.438 18.7959 118.447 17.9072 118.447 17.0381C118.447 14.7627 118.364 13.1367 118.198 12.1602C118.032 11.1738 117.661 10.6807 117.085 10.6807C116.499 10.6807 115.952 10.8271 115.444 11.1201C114.937 11.4033 114.556 11.8574 114.302 12.4824V14.4014C114.302 14.8311 114.307 15.207 114.316 15.5293C114.326 15.8418 114.351 16.2031 114.39 16.6133C114.429 17.0234 114.482 17.3652 114.551 17.6387C114.629 17.9023 114.736 18.1367 114.873 18.3418C115.01 18.5371 115.176 18.6445 115.371 18.6641C115.596 18.7031 115.762 18.7373 115.869 18.7666C115.977 18.7959 116.104 18.8447 116.25 18.9131C116.396 18.9814 116.499 19.0791 116.558 19.2061C116.616 19.333 116.646 19.4893 116.646 19.6748C116.646 20.4072 116.543 21.1641 116.338 21.9453C116.143 22.7266 115.864 23.21 115.503 23.3955C114.087 23.1318 112.529 23 110.83 23C109.072 23 107.466 23.1318 106.011 23.3955C105.649 23.21 105.366 22.7266 105.161 21.9453C104.966 21.1641 104.868 20.4072 104.868 19.6748C104.868 19.4893 104.897 19.333 104.956 19.2061C105.015 19.0791 105.117 18.9814 105.264 18.9131C105.41 18.8447 105.537 18.7959 105.645 18.7666C105.752 18.7373 105.918 18.7031 106.143 18.6641C106.338 18.6445 106.499 18.5518 106.626 18.3857C106.763 18.21 106.865 18.0098 106.934 17.7852C107.012 17.5508 107.065 17.2529 107.095 16.8916C107.134 16.5303 107.158 16.2178 107.168 15.9541C107.178 15.6904 107.183 15.3682 107.183 14.9873V8.04395C107.183 7.71191 107.178 7.45313 107.168 7.26758C107.158 7.08203 107.114 6.83789 107.036 6.53516C106.968 6.23242 106.865 5.99805 106.729 5.83203C106.602 5.65625 106.401 5.49512 106.128 5.34863C105.864 5.19238 105.537 5.09473 105.146 5.05566C104.834 5.02637 104.634 4.95312 104.546 4.83594C104.458 4.71875 104.414 4.49902 104.414 4.17676C104.414 3.50293 104.497 2.81934 104.663 2.12598C104.829 1.42285 105.059 0.978516 105.352 0.792969C106.934 1.05664 108.623 1.18848 110.42 1.18848C110.928 1.18848 111.509 1.15918 112.163 1.10059C112.817 1.03223 113.228 0.998047 113.394 0.998047C113.833 0.998047 114.121 1.08105 114.258 1.24707C114.395 1.40332 114.463 1.74512 114.463 2.27246C114.414 3.02441 114.365 4.86523 114.316 7.79492ZM138.604 23.3955C135.781 23.3955 133.511 22.6826 131.792 21.2568C130.083 19.8311 129.229 17.8242 129.229 15.2363C129.229 12.6582 130.015 10.6367 131.587 9.17188C133.169 7.70703 135.449 6.97461 138.428 6.97461C139.873 6.97461 141.172 7.13574 142.324 7.45801C143.477 7.78027 144.473 8.26367 145.312 8.9082C146.162 9.55273 146.812 10.3926 147.261 11.4277C147.72 12.4629 147.949 13.6641 147.949 15.0312C147.949 17.707 147.129 19.7725 145.488 21.2275C143.848 22.6729 141.553 23.3955 138.604 23.3955ZM137.051 15.251C137.051 17.0967 137.158 18.4492 137.373 19.3086C137.598 20.168 138.022 20.5977 138.647 20.5977C138.872 20.5977 139.067 20.5342 139.233 20.4072C139.409 20.2803 139.546 20.0801 139.644 19.8066C139.751 19.5332 139.839 19.25 139.907 18.957C139.976 18.6543 140.024 18.2637 140.054 17.7852C140.083 17.3066 140.103 16.8721 140.112 16.4814C140.122 16.0908 140.127 15.5977 140.127 15.002C140.127 14.5527 140.122 14.1865 140.112 13.9033C140.112 13.6104 140.098 13.2197 140.068 12.7314C140.039 12.2334 139.99 11.8281 139.922 11.5156C139.863 11.1934 139.78 10.8662 139.673 10.5342C139.565 10.2021 139.419 9.95312 139.233 9.78711C139.058 9.62109 138.848 9.53809 138.604 9.53809C137.959 9.53809 137.539 9.97266 137.344 10.8418C137.148 11.7109 137.051 13.1807 137.051 15.251ZM167.285 23C167.051 23 166.626 23.0391 166.011 23.1172C165.405 23.1953 164.951 23.2344 164.648 23.2344C164.014 23.2344 163.511 23.127 163.14 22.9121C162.778 22.6875 162.598 22.2871 162.598 21.7109C162.598 21.2812 162.603 20.6172 162.612 19.7188C162.632 18.8203 162.642 17.9268 162.642 17.0381C162.642 14.8311 162.544 13.2734 162.349 12.3652C162.163 11.4473 161.748 10.9883 161.104 10.9883C159.814 10.9883 159.17 11.7939 159.17 13.4053V14.5479C159.17 14.9775 159.17 15.3145 159.17 15.5586C159.18 15.793 159.194 16.0908 159.214 16.4521C159.233 16.8135 159.263 17.0967 159.302 17.3018C159.351 17.5068 159.414 17.7217 159.492 17.9463C159.57 18.1709 159.673 18.3418 159.8 18.459C159.927 18.5762 160.078 18.6543 160.254 18.6934C160.547 18.6934 160.806 18.7764 161.03 18.9424C161.255 19.1084 161.367 19.3525 161.367 19.6748C161.367 20.4072 161.265 21.1641 161.06 21.9453C160.864 22.7266 160.586 23.21 160.225 23.3955C158.838 23.1318 157.329 23 155.698 23C153.931 23 152.324 23.1318 150.879 23.3955C150.518 23.21 150.234 22.7266 150.029 21.9453C149.834 21.1641 149.736 20.4072 149.736 19.6748C149.736 19.3525 149.849 19.1084 150.073 18.9424C150.298 18.7764 150.557 18.6934 150.85 18.6934C151.357 18.5957 151.685 18.249 151.831 17.6533C151.987 17.0576 152.065 16.1689 152.065 14.9873V14.5918C152.065 13.3516 151.924 12.5117 151.641 12.0723C151.367 11.623 150.757 11.335 149.81 11.208C149.575 11.1592 149.424 11.0713 149.355 10.9443C149.297 10.8076 149.268 10.5342 149.268 10.124C149.268 9.60645 149.321 9.09863 149.429 8.60059C149.546 8.09277 149.678 7.69727 149.824 7.41406C149.971 7.12109 150.098 6.97461 150.205 6.97461C151.924 7.23828 153.467 7.37012 154.834 7.37012C155.459 7.37012 156.113 7.33594 156.797 7.26758C157.48 7.19922 157.92 7.16504 158.115 7.16504C158.535 7.16504 158.818 7.24316 158.965 7.39941C159.111 7.5459 159.185 7.89746 159.185 8.4541L159.155 9.37695C159.897 8.5957 160.728 8 161.646 7.58984C162.563 7.17969 163.496 6.97461 164.443 6.97461C165.176 6.97461 165.859 7.08691 166.494 7.31152C167.139 7.53613 167.71 7.87305 168.208 8.32227C168.716 8.76172 169.111 9.34766 169.395 10.0801C169.688 10.8125 169.834 11.6523 169.834 12.5996C169.834 12.834 169.819 13.1904 169.79 13.6689C169.761 14.1475 169.746 14.5137 169.746 14.7676C169.746 15.1094 169.746 15.3975 169.746 15.6318C169.756 15.8662 169.771 16.1494 169.79 16.4814C169.81 16.8037 169.844 17.0771 169.893 17.3018C169.941 17.5264 170 17.7461 170.068 17.9609C170.146 18.1758 170.244 18.3418 170.361 18.459C170.488 18.5762 170.635 18.6445 170.801 18.6641C170.82 18.6641 170.879 18.6738 170.977 18.6934C171.074 18.7129 171.133 18.7275 171.152 18.7373C171.182 18.7373 171.24 18.7471 171.328 18.7666C171.416 18.7861 171.475 18.8057 171.504 18.8252C171.533 18.835 171.582 18.8545 171.65 18.8838C171.719 18.9131 171.768 18.9424 171.797 18.9717C171.826 19.001 171.86 19.04 171.899 19.0889C171.948 19.1377 171.982 19.1914 172.002 19.25C172.021 19.2988 172.036 19.3623 172.046 19.4404C172.065 19.5088 172.075 19.5869 172.075 19.6748C172.075 20.4072 171.973 21.1641 171.768 21.9453C171.572 22.7266 171.294 23.21 170.933 23.3955C169.751 23.1318 168.535 23 167.285 23ZM180.483 12.7461C180.767 12.7461 181.201 12.7559 181.787 12.7754C182.373 12.7852 182.827 12.79 183.149 12.79C183.54 12.79 183.804 12.7119 183.94 12.5557C184.087 12.3896 184.16 12.1162 184.16 11.7354C184.16 11.0225 184.014 10.4756 183.721 10.0947C183.428 9.71387 183.003 9.52344 182.446 9.52344C181.646 9.52344 181.118 9.77734 180.864 10.2852C180.61 10.7832 180.483 11.6035 180.483 12.7461ZM188.555 21.5645C187.275 22.7852 185.205 23.3955 182.344 23.3955C180.674 23.3955 179.15 23.0732 177.773 22.4287C176.406 21.7744 175.308 20.8125 174.478 19.543C173.647 18.2637 173.232 16.7891 173.232 15.1191C173.232 12.5605 174.058 10.5635 175.708 9.12793C177.358 7.69238 179.536 6.97461 182.241 6.97461C184.37 6.97461 186.138 7.5459 187.544 8.68848C188.95 9.83105 189.731 11.2178 189.888 12.8486C189.663 14.3525 187.842 15.1387 184.424 15.207C183.438 15.2363 182.212 15.251 180.747 15.251C180.845 16.3838 181.216 17.2236 181.86 17.7705C182.515 18.3076 183.311 18.5762 184.248 18.5762C185.127 18.5762 186.016 18.4346 186.914 18.1514C187.812 17.8682 188.604 17.4922 189.287 17.0234C189.619 17.1699 189.785 17.458 189.785 17.8877C189.785 18.5615 189.648 19.2793 189.375 20.041C189.111 20.793 188.838 21.3008 188.555 21.5645Z" fill="#8696FE"/>
</svg>
